<svg width="168" height="168" viewBox="0 0 168 168" fill="none" xmlns="http://www.w3.org/2000/svg">
<path d="M113.094 34.125H54.9062C43.4298 34.125 34.125 43.4298 34.125 54.9062V113.094C34.125 124.57 43.4298 133.875 54.9062 133.875H113.094C124.57 133.875 133.875 124.57 133.875 113.094V54.9062C133.875 43.4298 124.57 34.125 113.094 34.125ZM98.1105 84.0104C94.8426 84.0156 92.1359 86.5405 91.9021 89.8032L90.8266 104.844C89.9746 116.803 75.6459 120.954 67.8997 110.179C60.699 100.152 50.75 84.0208 50.75 84.0208L69.8895 83.9896C73.1574 83.9844 75.8641 81.4595 76.0979 78.1968L77.1734 63.1564C78.0254 51.1968 92.3541 47.0457 100.1 57.8208C107.301 67.8478 117.25 83.9792 117.25 83.9792L98.1105 84.0104Z" fill="black"/>
</svg>
