<svg width="1926" height="512" viewBox="0 0 1926 512" fill="none" xmlns="http://www.w3.org/2000/svg">
<path d="M484 395.349V178.052H534.603V193.236C539.955 187.093 546.937 182.28 555.519 178.796C564.101 175.329 573.601 173.587 584.019 173.587C598.507 173.587 611.522 176.88 623.096 183.483C634.654 190.085 643.79 199.506 650.487 211.761C657.185 224.016 660.526 238.583 660.526 255.445C660.526 267.162 658.61 277.976 654.794 287.888C650.978 297.816 645.595 306.476 638.644 313.855C631.693 321.249 623.492 326.996 614.008 331.113C604.523 335.23 594.137 337.288 582.832 337.288C575.58 337.288 568.645 336.29 561.995 334.311C555.345 332.332 549.091 329.245 543.248 325.081V395.333H484.016L484 395.349ZM573.015 286.701C578.667 286.701 583.75 285.434 588.278 282.9C592.791 280.367 596.337 276.773 598.918 272.118C601.499 267.447 602.782 261.905 602.782 255.445C602.782 248.985 601.467 243.444 598.839 238.773C596.211 234.118 592.632 230.508 588.12 227.99C583.607 225.457 578.572 224.191 573.015 224.191C567.457 224.191 562.422 225.457 557.91 227.99C553.397 230.524 549.819 234.118 547.191 238.773C544.563 243.444 543.248 249.001 543.248 255.445C543.248 261.89 544.531 267.447 547.112 272.118C549.692 276.789 553.239 280.383 557.752 282.9C562.264 285.434 567.347 286.701 573.015 286.701Z" fill="white"/>
<path d="M729.275 337.304C719.348 337.304 710.275 335.325 702.042 331.351C693.809 327.392 687.206 321.661 682.25 314.156C677.294 306.666 674.809 297.61 674.809 286.986C674.809 277.755 677.057 269.68 681.585 262.729C686.098 255.778 692.764 250.11 701.599 245.692C710.434 241.275 721.374 238.282 734.421 236.683C747.468 235.1 762.525 234.989 779.594 236.382L779.894 271.801C773.149 270.313 766.689 269.395 760.546 269.046C754.387 268.698 748.94 268.967 744.174 269.87C739.409 270.756 735.64 272.324 732.869 274.556C730.083 276.789 728.705 279.797 728.705 283.566C728.705 287.635 730.336 290.659 733.614 292.638C736.891 294.617 741.15 295.615 746.407 295.615C751.173 295.615 755.464 294.823 759.279 293.24C763.095 291.656 766.151 289.202 768.431 285.877C770.711 282.552 771.851 278.261 771.851 273.005V241.449C771.851 236.683 770.901 232.44 769.017 228.719C767.133 224.998 763.95 222.069 759.485 219.931C755.02 217.794 748.814 216.733 740.881 216.733C732.949 216.733 725.079 217.921 717.289 220.311C709.499 222.686 702.675 226.075 696.817 230.429L682.234 190.846C692.558 184.591 703.72 179.905 715.722 176.786C727.724 173.666 739.583 172.099 751.299 172.099C766.088 172.099 779.277 174.458 790.883 179.161C802.489 183.879 811.64 191.273 818.338 201.343C825.035 211.413 828.376 224.491 828.376 240.562V332.839H777.773V317.655C773.007 323.909 766.468 328.738 758.124 332.174C749.795 335.594 740.169 337.304 729.244 337.304H729.275Z" fill="white"/>
<path d="M883.318 399.212C875.275 399.212 867.469 398.436 859.869 396.9C852.285 395.364 845.461 393.053 839.412 389.981L851.762 340.565C855.04 342.148 858.713 343.447 862.782 344.428C866.851 345.426 870.715 345.917 874.388 345.917C878.853 345.917 882.954 345.093 886.675 343.463C890.395 341.832 892.85 338.871 894.037 334.612L894.639 332.237L835.105 178.052H899.405L928.285 275.395L956.262 178.052H1019.07L956.563 343.858C951.1 357.443 944.577 368.289 936.993 376.38C929.409 384.471 921.049 390.298 911.913 393.86C902.777 397.438 893.261 399.212 883.334 399.212H883.318Z" fill="white"/>
<path d="M1030.66 332.839V178.052H1090.2V195.912C1093.57 191.146 1097.69 187.109 1102.55 183.784C1107.41 180.459 1112.65 177.926 1118.25 176.2C1123.86 174.458 1129.5 173.587 1135.15 173.587C1145.57 173.587 1154.86 175.994 1163.05 180.807C1171.23 185.62 1176.71 192.35 1179.5 200.979C1184.56 192.144 1192.2 185.383 1202.42 180.665C1212.64 175.946 1223.86 173.603 1236.05 173.603C1251.43 173.603 1263.45 176.485 1272.07 182.232C1280.7 187.98 1286.78 195.485 1290.3 204.7C1293.81 213.931 1295.59 223.795 1295.59 234.324V332.855H1236.05V251.297C1236.05 243.95 1234.17 238.108 1230.4 233.738C1226.63 229.368 1221.27 227.183 1214.33 227.183C1209.96 227.183 1206.16 228.054 1202.95 229.796C1199.72 231.537 1197.25 233.786 1195.5 236.572C1193.76 239.359 1192.89 242.383 1192.89 245.645V332.855H1133.36V251.297C1133.36 243.95 1131.47 238.108 1127.71 233.738C1123.94 229.368 1118.57 227.183 1111.64 227.183C1107.27 227.183 1103.47 228.054 1100.25 229.796C1097.02 231.537 1094.55 233.786 1092.81 236.572C1091.07 239.359 1090.2 242.383 1090.2 245.645V332.855H1030.66V332.839Z" fill="white"/>
<path d="M1400.66 337.304C1383.4 337.304 1368.19 333.583 1355.04 326.141C1341.9 318.7 1331.63 308.788 1324.23 296.375C1316.84 283.977 1313.15 270.329 1313.15 255.445C1313.15 244.726 1315.25 234.466 1319.48 224.634C1323.69 214.817 1329.69 206.077 1337.48 198.445C1345.27 190.798 1354.52 184.75 1365.24 180.285C1375.96 175.82 1387.76 173.587 1400.66 173.587C1417.92 173.587 1433.13 177.308 1446.28 184.75C1459.42 192.191 1469.69 202.119 1477.09 214.516C1484.48 226.914 1488.17 240.562 1488.17 255.445C1488.17 266.165 1486.06 276.425 1481.85 286.257C1477.64 296.074 1471.62 304.814 1463.85 312.445C1456.06 320.093 1446.83 326.141 1436.17 330.606C1425.5 335.071 1413.67 337.304 1400.68 337.304H1400.66ZM1400.66 286.701C1406.22 286.701 1411.25 285.434 1415.76 282.9C1420.28 280.367 1423.86 276.773 1426.48 272.118C1429.11 267.447 1430.43 261.905 1430.43 255.445C1430.43 248.985 1429.13 243.444 1426.56 238.773C1423.98 234.118 1420.44 230.508 1415.92 227.99C1411.41 225.457 1406.33 224.19 1400.66 224.19C1394.99 224.19 1389.92 225.457 1385.4 227.99C1380.88 230.524 1377.34 234.118 1374.76 238.773C1372.18 243.444 1370.89 249.001 1370.89 255.445C1370.89 261.89 1372.21 267.447 1374.84 272.118C1377.46 276.789 1381.04 280.383 1385.55 282.9C1390.07 285.434 1395.1 286.701 1400.66 286.701Z" fill="white"/>
<path d="M1534.9 332.838L1482.21 178.052H1545.61L1572.4 281.348H1566.74L1592.65 178.052H1654.56L1604.55 332.838H1534.9Z" fill="white"/>
<path d="M1741.18 337.304C1723.81 337.304 1708.63 333.884 1695.64 327.028C1682.64 320.188 1672.54 310.609 1665.35 298.306C1658.16 286.004 1654.57 271.611 1654.57 255.145C1654.57 243.143 1656.68 232.155 1660.9 222.18C1665.12 212.205 1671.07 203.607 1678.76 196.355C1686.46 189.12 1695.53 183.515 1706 179.541C1716.46 175.566 1728.01 173.587 1740.59 173.587C1754.68 173.587 1767.21 176.073 1778.18 181.029C1789.14 185.985 1798.19 192.904 1805.34 201.786C1812.48 210.669 1817.34 221.087 1819.92 233.041C1822.5 244.995 1822.34 258.026 1819.47 272.118H1707.85C1708.25 276.187 1709.96 279.766 1712.98 282.837C1716 285.909 1720.06 288.316 1725.11 290.057C1730.17 291.799 1735.92 292.67 1742.37 292.67C1751.79 292.67 1760.57 291.577 1768.71 289.392C1776.85 287.207 1784.94 283.74 1792.97 278.974L1810.23 318.272C1805.67 321.74 1799.46 324.922 1791.62 327.804C1783.79 330.686 1775.39 332.981 1766.46 334.723C1757.53 336.465 1749.1 337.335 1741.16 337.335L1741.18 337.304ZM1711.71 233.421H1763.5C1763.5 228.07 1761.22 223.7 1756.66 220.327C1752.1 216.955 1746.15 215.26 1738.8 215.26C1731.46 215.26 1724.98 216.955 1719.98 220.327C1714.96 223.7 1712.22 228.07 1711.71 233.421Z" fill="white"/>
<path d="M344.667 104H167.333C132.358 104 104 132.358 104 167.333V344.667C104 379.643 132.358 408 167.333 408H344.667C379.643 408 408 379.643 408 344.667V167.333C408 132.358 379.643 104 344.667 104ZM299.003 256.032C289.044 256.047 280.795 263.743 280.082 273.686L276.805 319.523C274.208 355.972 230.54 368.623 206.933 335.784C184.988 305.226 154.667 256.063 154.667 256.063L212.997 255.968C222.956 255.953 231.205 248.257 231.918 238.314L235.195 192.477C237.792 156.028 281.46 143.378 305.067 176.216C327.012 206.774 357.333 255.937 357.333 255.937L299.003 256.032Z" fill="white"/>
</svg>
