<svg width="1441" height="383" viewBox="0 0 1441 383" fill="none" xmlns="http://www.w3.org/2000/svg">
<path d="M362.676 295.739V133.191H400.529V144.55C404.533 139.954 409.756 136.354 416.175 133.748C422.595 131.154 429.701 129.851 437.495 129.851C448.332 129.851 458.068 132.315 466.726 137.254C475.372 142.193 482.206 149.24 487.216 158.407C492.226 167.575 494.725 178.471 494.725 191.085C494.725 199.85 493.292 207.939 490.438 215.354C487.583 222.78 483.556 229.259 478.357 234.778C473.157 240.309 467.022 244.608 459.928 247.688C452.833 250.767 445.063 252.307 436.606 252.307C431.182 252.307 425.994 251.561 421.02 250.08C416.045 248.6 411.367 246.29 406.996 243.175V295.727H362.688L362.676 295.739ZM429.263 214.465C433.492 214.465 437.293 213.518 440.681 211.623C444.056 209.728 446.709 207.039 448.64 203.557C450.571 200.063 451.53 195.917 451.53 191.085C451.53 186.253 450.547 182.107 448.581 178.613C446.615 175.131 443.938 172.431 440.562 170.547C437.187 168.652 433.42 167.705 429.263 167.705C425.106 167.705 421.339 168.652 417.964 170.547C414.588 172.442 411.912 175.131 409.945 178.613C407.979 182.107 406.996 186.265 406.996 191.085C406.996 195.906 407.956 200.063 409.886 203.557C411.817 207.051 414.47 209.739 417.845 211.623C421.221 213.518 425.023 214.465 429.263 214.465Z" fill="black"/>
<path d="M546.154 252.319C538.728 252.319 531.941 250.838 525.782 247.866C519.623 244.905 514.684 240.617 510.977 235.003C507.27 229.401 505.41 222.626 505.41 214.679C505.41 207.773 507.092 201.733 510.479 196.533C513.855 191.334 518.841 187.094 525.45 183.789C532.059 180.485 540.244 178.246 550.003 177.05C559.763 175.865 571.026 175.783 583.794 176.825L584.019 203.32C578.974 202.207 574.141 201.52 569.546 201.259C564.939 200.999 560.864 201.2 557.299 201.875C553.734 202.538 550.915 203.711 548.842 205.381C546.758 207.051 545.727 209.301 545.727 212.12C545.727 215.164 546.947 217.426 549.399 218.907C551.851 220.387 555.037 221.134 558.969 221.134C562.534 221.134 565.744 220.541 568.598 219.357C571.453 218.173 573.739 216.337 575.444 213.849C577.15 211.362 578.003 208.152 578.003 204.22V180.615C578.003 177.05 577.292 173.876 575.882 171.092C574.473 168.309 572.092 166.118 568.752 164.519C565.412 162.92 560.769 162.126 554.836 162.126C548.902 162.126 543.015 163.015 537.188 164.803C531.361 166.58 526.256 169.114 521.873 172.372L510.965 142.761C518.687 138.083 527.037 134.577 536.015 132.244C544.993 129.91 553.864 128.738 562.629 128.738C573.691 128.738 583.557 130.503 592.239 134.02C600.921 137.55 607.767 143.081 612.777 150.614C617.787 158.147 620.286 167.93 620.286 179.952V248.979H582.432V237.621C578.867 242.299 573.976 245.911 567.734 248.482C561.504 251.04 554.303 252.319 546.13 252.319H546.154Z" fill="black"/>
<path d="M661.382 298.629C655.365 298.629 649.526 298.049 643.841 296.9C638.167 295.751 633.062 294.022 628.538 291.724L637.776 254.759C640.228 255.943 642.976 256.914 646.02 257.649C649.064 258.395 651.954 258.762 654.702 258.762C658.042 258.762 661.109 258.146 663.893 256.926C666.676 255.706 668.512 253.491 669.4 250.305L669.85 248.529L625.316 133.191H673.415L695.019 206.008L715.947 133.191H762.933L716.172 257.222C712.086 267.384 707.206 275.498 701.533 281.55C695.86 287.602 689.606 291.961 682.772 294.626C675.938 297.303 668.82 298.629 661.393 298.629H661.382Z" fill="black"/>
<path d="M771.605 248.979V133.191H816.139V146.551C818.662 142.986 821.741 139.966 825.378 137.479C829.014 134.992 832.934 133.097 837.127 131.806C841.32 130.503 845.536 129.851 849.765 129.851C857.558 129.851 864.51 131.652 870.634 135.252C876.757 138.853 880.855 143.887 882.94 150.342C886.73 143.733 892.439 138.675 900.09 135.146C907.729 131.616 916.127 129.863 925.247 129.863C936.747 129.863 945.737 132.019 952.192 136.318C958.647 140.618 963.195 146.232 965.825 153.125C968.454 160.03 969.781 167.409 969.781 175.285V248.991H925.247V187.982C925.247 182.486 923.837 178.116 921.019 174.847C918.2 171.578 914.184 169.944 908.997 169.944C905.728 169.944 902.885 170.595 900.481 171.898C898.065 173.201 896.217 174.883 894.914 176.967C893.611 179.052 892.96 181.314 892.96 183.754V248.991H848.426V187.982C848.426 182.486 847.017 178.116 844.198 174.847C841.379 171.578 837.364 169.944 832.176 169.944C828.907 169.944 826.065 170.595 823.66 171.898C821.244 173.201 819.396 174.883 818.093 176.967C816.791 179.052 816.139 181.314 816.139 183.754V248.991H771.605V248.979Z" fill="black"/>
<path d="M1048.38 252.319C1035.47 252.319 1024.09 249.536 1014.26 243.969C1004.43 238.402 996.74 230.988 991.209 221.702C985.678 212.428 982.918 202.219 982.918 191.085C982.918 183.067 984.493 175.392 987.656 168.037C990.806 160.693 995.295 154.155 1001.12 148.447C1006.95 142.726 1013.87 138.201 1021.88 134.861C1029.9 131.521 1038.73 129.851 1048.38 129.851C1061.29 129.851 1072.67 132.635 1082.5 138.201C1092.33 143.768 1100.02 151.194 1105.55 160.468C1111.08 169.742 1113.84 179.952 1113.84 191.085C1113.84 199.104 1112.27 206.779 1109.12 214.134C1105.97 221.477 1101.47 228.015 1095.65 233.724C1089.82 239.445 1082.92 243.969 1074.95 247.309C1066.96 250.649 1058.12 252.319 1048.39 252.319H1048.38ZM1048.38 214.465C1052.54 214.465 1056.3 213.518 1059.68 211.623C1063.05 209.728 1065.73 207.039 1067.7 203.557C1069.66 200.063 1070.65 195.918 1070.65 191.085C1070.65 186.253 1069.68 182.107 1067.76 178.613C1065.83 175.131 1063.17 172.431 1059.8 170.548C1056.42 168.653 1052.62 167.705 1048.38 167.705C1044.14 167.705 1040.35 168.653 1036.96 170.548C1033.59 172.443 1030.93 175.131 1029 178.613C1027.07 182.107 1026.11 186.265 1026.11 191.085C1026.11 195.906 1027.1 200.063 1029.06 203.557C1031.03 207.051 1033.71 209.74 1037.08 211.623C1040.46 213.518 1044.22 214.465 1048.38 214.465Z" fill="black"/>
<path d="M1148.8 248.979L1109.38 133.191H1156.81L1176.85 210.462H1172.62L1192 133.191H1238.31L1200.9 248.979H1148.8Z" fill="black"/>
<path d="M1303.11 252.319C1290.11 252.319 1278.76 249.761 1269.04 244.632C1259.32 239.516 1251.76 232.35 1246.39 223.147C1241.01 213.944 1238.32 203.178 1238.32 190.86C1238.32 181.882 1239.9 173.663 1243.06 166.201C1246.21 158.739 1250.66 152.308 1256.42 146.883C1262.17 141.47 1268.96 137.278 1276.79 134.305C1284.62 131.332 1293.25 129.851 1302.67 129.851C1313.21 129.851 1322.58 131.711 1330.79 135.418C1338.98 139.125 1345.76 144.301 1351.1 150.946C1356.44 157.59 1360.08 165.384 1362.01 174.326C1363.94 183.268 1363.82 193.016 1361.68 203.557H1278.18C1278.47 206.601 1279.75 209.278 1282.01 211.575C1284.28 213.873 1287.31 215.674 1291.09 216.976C1294.88 218.279 1299.18 218.931 1304 218.931C1311.04 218.931 1317.62 218.113 1323.7 216.479C1329.79 214.844 1335.84 212.251 1341.85 208.686L1354.76 238.082C1351.35 240.676 1346.71 243.057 1340.84 245.213C1334.98 247.368 1328.7 249.086 1322.02 250.388C1315.34 251.691 1309.03 252.343 1303.1 252.343L1303.11 252.319ZM1281.07 174.61H1319.81C1319.81 170.607 1318.1 167.338 1314.69 164.815C1311.28 162.292 1306.83 161.025 1301.33 161.025C1295.84 161.025 1290.99 162.292 1287.25 164.815C1283.49 167.338 1281.44 170.607 1281.07 174.61Z" fill="black"/>
<path d="M258.448 77.7969H125.794C99.6307 77.7969 78.418 99.0096 78.418 125.173V257.827C78.418 283.99 99.6307 305.203 125.794 305.203H258.448C284.611 305.203 305.824 283.99 305.824 257.827V125.173C305.824 99.0096 284.611 77.7969 258.448 77.7969ZM224.29 191.524C216.84 191.536 210.669 197.292 210.136 204.73L207.684 239.018C205.742 266.283 173.076 275.747 155.416 251.182C139 228.323 116.319 191.547 116.319 191.547L159.953 191.476C167.403 191.464 173.573 185.708 174.106 178.27L176.558 143.982C178.5 116.717 211.166 107.253 228.826 131.818C245.242 154.677 267.923 191.453 267.923 191.453L224.29 191.524Z" fill="black"/>
</svg>
